<svg width="24" height="24" viewBox="0 0 24 24" fill="none" xmlns="http://www.w3.org/2000/svg">
<g clip-path="url(#clip0_12061_161588)">
<path d="M23.9388 5.656C23.8438 5.397 23.6468 5.189 23.3938 5.081L16.3938 2.081C16.2728 2.029 16.1398 2 15.9998 2H7.99981C7.85981 2 7.72781 2.029 7.60681 2.081L0.605809 5.081C0.352809 5.189 0.155809 5.397 0.0608086 5.656C-0.0341914 5.915 -0.0181914 6.201 0.104809 6.447L2.10481 10.447C2.27481 10.786 2.62081 11 2.99981 11H4.99981V19C4.99981 20.103 5.89681 21 6.99981 21H16.9998C18.1028 21 18.9998 20.103 18.9998 19V11H20.9998C21.3788 11 21.7248 10.786 21.8948 10.447L23.8948 6.447C24.0178 6.201 24.0338 5.915 23.9388 5.656ZM14.8158 4C14.4018 5.161 13.3018 6 11.9998 6C10.6978 6 9.59781 5.161 9.18381 4H14.8158Z" fill="white"/>
</g>
<defs>
<clipPath id="clip0_12061_161588">
<rect width="24" height="24" fill="white"/>
</clipPath>
</defs>
</svg>
