<svg width="24" height="24" viewBox="0 0 24 24" fill="none" xmlns="http://www.w3.org/2000/svg">
<path d="M5 19.3453L5.00657 6.5C5.00657 3.29808 8.5431 1 12.5019 1C16.562 1 20 4.32475 20 7.41667C20 10.0081 19.2203 11.78 18.1506 13.2714C17.17 14.64 15.8826 15.8381 14.8599 17.2433C14.1758 18.1847 13.7161 19.48 12.9279 20.6533C12.0871 21.9119 10.8542 23 8.74296 23C6.67772 23 5 21.3619 5 19.3453ZM11.5636 12.9167C11.5636 11.8414 10.6252 11.1319 10.6252 10.1667C10.6252 8.79808 11.2774 6.5 13.1249 6.5C14.4583 6.5 15.3168 7.14808 15.3168 7.72192V7.8805C15.3168 8.12525 15.527 8.33242 15.786 8.33242C16.045 8.33242 16.2552 8.12433 16.2552 7.8805V7.41667C16.2552 5.58333 14.0642 4.66667 12.5019 4.66667C10.2846 4.66667 10.0013 6.46333 8.92406 8.07667C8.18278 9.18858 6.87195 9.93475 6.87195 11.0833C6.87195 11.9267 8.74859 12.0614 8.74859 12.9167C8.74859 14.0286 6.87195 14.5548 6.87195 15.6667C6.87195 16.5348 7.86563 17.5 8.74859 17.5C10.5586 17.5 11.5636 14.7014 11.5636 12.9167Z" fill="white"/>
</svg>
