<svg width="24" height="24" viewBox="0 0 24 24" fill="none" xmlns="http://www.w3.org/2000/svg">
<g clip-path="url(#clip0_12061_161576)">
<path d="M23.8948 11.553C23.7198 11.204 19.5308 3 11.9998 3C4.46877 3 0.279773 11.204 0.104773 11.553C-0.0362266 11.835 -0.0362266 12.166 0.104773 12.448C0.279773 12.796 4.46877 21 11.9998 21C19.5308 21 23.7198 12.796 23.8948 12.447C24.0348 12.166 24.0348 11.834 23.8948 11.553ZM11.9998 16C9.79077 16 7.99977 14.209 7.99977 12C7.99977 9.791 9.79077 8 11.9998 8C14.2088 8 15.9998 9.791 15.9998 12C15.9998 14.209 14.2088 16 11.9998 16Z" fill="white"/>
</g>
<defs>
<clipPath id="clip0_12061_161576">
<rect width="24" height="24" fill="white"/>
</clipPath>
</defs>
</svg>
