<svg width="24" height="24" viewBox="0 0 24 24" fill="none" xmlns="http://www.w3.org/2000/svg">
<path d="M12.0001 2C9.83137 2 7.54523 2.58077 5.61922 3.35156C3.69322 4.12236 2.16361 4.95155 1.3575 6.0918C0.972175 6.63808 0.87215 7.3885 1.20125 8.01172C1.53036 8.63494 2.26172 9 3.00789 9C4.11307 9 4.94881 8.41035 5.9493 7.7793C6.94979 7.14824 8.06407 6.39204 9.29696 5.76562C11.5583 4.61667 14.1278 3.97201 17.2208 5.19922C19.6973 6.28726 21.293 7.70703 21.293 7.70703C21.3852 7.803 21.4956 7.87963 21.6177 7.93241C21.7398 7.9852 21.8713 8.01308 22.0043 8.01444C22.1373 8.01579 22.2693 7.99058 22.3925 7.94029C22.5157 7.89001 22.6276 7.81564 22.7216 7.72157C22.8157 7.62749 22.8901 7.51558 22.9404 7.3924C22.9907 7.26923 23.0159 7.13725 23.0145 7.00421C23.0132 6.87117 22.9853 6.73974 22.9325 6.61761C22.8797 6.49548 22.8031 6.38511 22.7071 6.29297C22.7071 6.29297 21.3907 5.06476 19.2364 3.91406C19.2358 3.91341 19.2351 3.91276 19.2345 3.91211C19.1507 3.82321 19.0514 3.75039 18.9415 3.69727C18.6348 3.54404 18.3488 3.51349 18.047 3.39258C16.3595 2.64516 14.4003 2 12.0001 2ZM12.0001 8C7.46408 8 3.27349 11.9039 1.44149 13.8809C0.853488 14.5159 0.853488 15.4841 1.44149 16.1191C3.27349 18.0961 7.46408 22 12.0001 22C16.5371 22 20.7238 18.0961 22.5528 16.1191C23.1398 15.4851 23.1398 14.5149 22.5528 13.8809C20.7238 11.9039 16.5371 8 12.0001 8ZM15.9473 14.3809C17.2982 14.6494 18.7036 15.0847 20.1407 15.7246C18.3243 17.4831 15.1712 20 12.0001 20C8.81872 20 5.64995 17.4662 3.83407 15.707C4.48663 15.4091 5.99404 14.8014 8.04891 14.3945C7.96168 14.9641 7.99856 15.5459 8.15702 16.0999C8.31547 16.6539 8.59176 17.1672 8.96697 17.6045C9.34219 18.0419 9.80747 18.393 10.331 18.6339C10.8545 18.8747 11.4238 18.9996 12.0001 19C12.5773 18.9993 13.1476 18.8738 13.6718 18.6319C14.1959 18.3899 14.6615 18.0375 15.0365 17.5986C15.4115 17.1598 15.6871 16.6449 15.8443 16.0895C16.0016 15.5341 16.0367 14.9512 15.9473 14.3809Z" fill="white"/>
</svg>
