<svg width="24" height="24" viewBox="0 0 24 24" fill="none" xmlns="http://www.w3.org/2000/svg">
<path d="M12 2C6.486 2 2 6.486 2 12C2 17.514 6.486 22 12 22C17.514 22 22 17.514 22 12C22 6.486 17.514 2 12 2ZM9 11C9.552 11 10 11.448 10 12C10 12.552 9.552 13 9 13C8.448 13 8 12.552 8 12C8 11.448 8.448 11 9 11ZM15.605 16.796C15.541 16.845 14 18 12 18C10 18 8.459 16.845 8.395 16.796C7.956 16.462 7.87 15.834 8.205 15.395C8.539 14.955 9.167 14.87 9.606 15.205C9.612 15.209 10.689 16 12 16C13.311 16 14.388 15.209 14.398 15.201C14.84 14.873 15.466 14.96 15.796 15.4C16.128 15.84 16.043 16.462 15.605 16.796ZM15 13C14.448 13 14 12.552 14 12C14 11.448 14.448 11 15 11C15.552 11 16 11.448 16 12C16 12.552 15.552 13 15 13Z" fill="white"/>
</svg>
