<svg width="24" height="24" viewBox="0 0 24 24" fill="none" xmlns="http://www.w3.org/2000/svg">
<path d="M22.884 15.131C22.788 14.493 22.636 13.865 22.413 13.254L19.5 5.241C19.066 4.05 17.924 3.25 16.656 3.25C15.503 3.25 14.467 3.891 13.95 4.922L13.579 5.664C13.393 6.035 13.544 6.485 13.915 6.67C14.286 6.855 14.735 6.705 14.921 6.335L15.292 5.593C15.552 5.073 16.075 4.75 16.656 4.75C17.295 4.75 17.871 5.153 18.09 5.754L20.752 13.075C20.571 13.037 20.384 13.017 20.192 13.017H3.815C3.621 13.017 3.432 13.037 3.249 13.076L5.91 5.754C6.129 5.153 6.705 4.75 7.344 4.75C7.925 4.75 8.448 5.073 8.708 5.593L9.079 6.335C9.265 6.705 9.714 6.856 10.085 6.67C10.456 6.484 10.606 6.034 10.421 5.664L10.05 4.922C9.533 3.891 8.497 3.25 7.344 3.25C6.076 3.25 4.934 4.05 4.5 5.241L1.587 13.253C1.361 13.874 1.208 14.512 1.113 15.16C1.05 15.4 1.005 15.648 1.005 15.909V16.473C1.004 16.511 1 16.548 1 16.585V19C1 19.009 1.005 19.016 1.005 19.024V19.123C1.005 20.718 2.266 22 3.815 22H7.48C8.695 22 9.767 21.218 10.167 19.957L10.369 19H13.638L13.859 20.03C14.239 21.218 15.311 22 16.526 22H20.191C21.74 22 23 20.718 23 19.123V19V16.585V15.908C23 15.637 22.952 15.38 22.884 15.131ZM10.688 17.5L10.833 16.815C11.082 16.038 10.979 15.203 10.595 14.5H13.409C13.025 15.202 12.92 16.029 13.153 16.743L13.316 17.5H10.688Z" fill="white"/>
</svg>
