<svg width="24" height="24" viewBox="0 0 24 24" fill="none" xmlns="http://www.w3.org/2000/svg">
<g clip-path="url(#clip0_12061_161580)">
<path d="M11.9998 2C6.92143 2 2.99977 5.57195 2.99977 10.5215C2.99977 12.3473 3.58897 13.6522 4.31227 14.5039C3.44499 14.6256 2.31955 14.968 1.44117 15.9141C0.0971725 17.3611 0.00285996 19.7077 -0.00414004 19.9707C-0.01014 20.2377 0.0901568 20.4955 0.275157 20.6875C0.460157 20.8795 0.713235 20.9901 0.980235 20.9941H1.00953C1.31053 20.9941 3.62594 20.9461 5.07594 19.4961C5.80696 18.7651 6.16212 17.829 6.33961 17.0332C6.63811 17.9576 7.11625 18.8438 7.72633 19.6172C8.77617 20.948 10.2606 22 11.9998 22C14.6292 22 16.9093 20.0208 17.7009 17.1934C17.8902 17.9536 18.2415 18.8144 18.9255 19.498C20.3755 20.948 22.69 20.9961 22.99 20.9961H23.0193C23.2863 20.9921 23.5404 20.8815 23.7244 20.6895C23.9104 20.4975 24.0097 20.2397 24.0037 19.9727C23.9977 19.7087 23.9043 17.363 22.5603 15.916C21.6817 14.9691 20.5536 14.6271 19.6853 14.5059C20.4094 13.6542 20.9998 12.3488 20.9998 10.5215C20.9998 8.42685 20.3087 6.65976 19.0877 5.38672C17.9366 4.18666 16.3435 3.46796 14.5486 3.0918C14.1999 2.71384 13.4376 2 11.9998 2ZM13.0076 10.7168C13.0342 10.7685 13.0187 10.7664 13.0466 10.8184C13.628 11.9018 14.6386 12.9864 15.9998 13.5566V15C15.9998 18.0401 13.9977 20 11.9998 20C11.106 20 10.0886 19.3828 9.29664 18.3789C8.50473 17.375 7.99977 16.034 7.99977 15V13.875C10.3964 13.5752 12.0042 12.3324 12.8513 11.0527C12.932 10.9309 12.9376 10.8379 13.0076 10.7168Z" fill="white"/>
</g>
<defs>
<clipPath id="clip0_12061_161580">
<rect width="24" height="24" fill="white"/>
</clipPath>
</defs>
</svg>
