<svg width="24" height="24" viewBox="0 0 24 24" fill="none" xmlns="http://www.w3.org/2000/svg">
<path d="M23.6745 10.6315C23.4705 10.4915 23.2105 10.4615 22.98 10.55C20.642 11.453 19.8385 10.7825 18.8215 9.9345C18.0145 9.262 17.1 8.5 15.5 8.5C13.995 8.5 12.6825 9.3365 12 10.568C11.3175 9.3365 10.005 8.5 8.5 8.5C6.9 8.5 5.9855 9.262 5.1785 9.935C4.161 10.7835 3.357 11.453 1.02 10.5505C0.7895 10.4615 0.5295 10.4915 0.3255 10.632C0.122 10.771 0 11.0025 0 11.25C0 15.403 4.7425 16.5 7.25 16.5C9.839 16.5 11.3075 15.537 12 14.3485C12.6925 15.537 14.161 16.5 16.75 16.5C19.2575 16.5 24 15.403 24 11.25C24 11.0025 23.878 10.771 23.6745 10.6315Z" fill="white"/>
</svg>
